<svg width="1409" height="224" xmlns="http://www.w3.org/2000/svg" version="1.1">
 <g>
  <title>Layer 1</title>
  <g y="-945.53284" x="-102.38402" id="svg_23" transform="matrix(0.932948 0 0 0.932948 101.084 892.234)">
   <svg y="-955.16707" x="-109.7256" id="svg_132" width="1500" height="234" preserveAspectRatio="xMidYMid meet" data-background-color="#ffffff" viewBox="0 0 396 62" xmlns:xlink="http://www.w3.org/1999/xlink" xmlns="http://www.w3.org/2000/svg">
    <g transform="matrix(1,0,0,1,0.2400000000000091,0.1516591334245163)" id="svg_1">
     <svg id="svg_133" width="395.52" height="61.69668" viewBox="0 0 395.52 61.696681733150974">
      <svg id="svg_134" width="395.52" height="61.69668" viewBox="0 0 526.3999847231185 82.11249070033823">
       <g id="svg_52" transform="matrix(1,0,0,1,0,3.4513750006764425)">
        <svg id="svg_135" width="395.52" height="75.20974" viewBox="0 0 395.52000000000004 75.20974069898534">
         <svg id="svg_53" width="395.52" height="75.20974" viewBox="0 0 395.52000000000004 75.20974069898534">
          <svg id="svg_136" width="395.52" height="75.20974" viewBox="0 0 395.52000000000004 75.20974069898534">
           <svg id="svg_137" data-palette-color="url(#3888a710-86c6-435d-9f3b-83e93010c136)" height="75.20974" viewBox="3.49 -37.06 194.89 37.06" width="395.52"/>
          </svg>
         </svg>
        </svg>
       </g>
       <g id="svg_57" transform="matrix(1,0,0,1,413.2752147452537,0)">
        <svg id="svg_138" width="113.12477" height="82.11249" viewBox="0 0 113.12476997786474 82.11249070033823">
         <svg id="svg_58" data-fill-palette-color="accent" class="icon-icon-0" width="113.12477" height="82.11249" xml:space="preserve" viewBox="3.1681850968156864 11.04360547051564 57.66473483955798 41.85639452948436" y="0" x="0" version="1.1" xmlns:xlink="http://www.w3.org/1999/xlink" xmlns="http://www.w3.org/2000/svg"/>
        </svg>
       </g>
      </svg>
      <defs>
       <linearGradient id="svg_35" y2="0.595" y1="0.578" x2="1" x1="0">
        <stop offset="0" stop-color="#6ee2f5"/>
        <stop offset="1" stop-color="#6454f0"/>
       </linearGradient>
       <linearGradient id="svg_24" y2="0.595" y1="0.578" x2="1" x1="0">
        <stop offset="0" stop-color="#6ee2f5"/>
        <stop offset="1" stop-color="#6454f0"/>
       </linearGradient>
      </defs>
      <mask id="svg_36">
       <g id="svg_37">
        <svg id="svg_139" width="395.52" height="61.69668" viewBox="0 0 395.52 61.696681733150974">
         <svg id="svg_140" width="395.52" height="61.69668" viewBox="0 0 526.3999847231185 82.11249070033823">
          <g id="svg_73" transform="matrix(1,0,0,1,0,3.4513750006764425)">
           <svg id="svg_141" width="395.52" height="75.20974" viewBox="0 0 395.52000000000004 75.20974069898534">
            <svg id="svg_74" width="395.52" height="75.20974" viewBox="0 0 395.52000000000004 75.20974069898534">
             <svg id="svg_142" width="395.52" height="75.20974" viewBox="0 0 395.52000000000004 75.20974069898534">
              <svg id="svg_143" data-palette-color="url(#3888a710-86c6-435d-9f3b-83e93010c136)" height="75.20974" viewBox="3.49 -37.06 194.89 37.06" width="395.52">
               <path id="svg_78" class="wordmark-text-0" fill="white" d="m26.39,-32.79l0,-4.22l12.01,0l0,4.22l-3.15,0l0,32.79l-6.25,0l-17.21,-30.69l0,26.49l3.81,0l0,4.2l-12.01,0l0,-4.2l3.42,0l0,-28.59l-3.52,0l0,-4.27l9.96,0l16.9,30.39l0.19,-1.17l0,-24.95l-4.15,0zm16.75,0l0,-4.22l11.81,0l0,4.22l-3.51,0l0,28.59l3.51,0l0,4.2l-11.81,0l0,-4.2l3.51,0l0,-28.59l-3.51,0zm16.55,0l0,-4.22l12.01,0l0,4.22l-3.52,0l6.96,11.89l7.45,-11.89l-3.86,0l0,-4.22l12.01,0l0,4.22l-3.15,0l-10.4,15.77l0,12.82l3.81,0l0,4.2l-12.01,0l0,-4.2l3.39,0l0,-12.94l-9.81,-15.65l-2.88,0zm53.44,32.79l0,-4.2l3.07,0l-2.93,-8.4l-14.23,0l-2.86,8.4l3.81,0l0,4.2l-12.01,0l0,-4.2l3.22,0l11.53,-32.81l7.2,0l11.5,32.81l3.71,0l0,4.2l-12.01,0zm-7.03,-33.2l-5.67,16.55l11.43,0l-5.76,-16.55zm22.77,0.41l0,-4.22l15.41,0q2.46,0 4.55,0.65q2.09,0.64 3.61,1.9q1.53,1.26 2.38,3.14q0.86,1.88 0.86,4.32l0,0q0,1.39 -0.5,2.74q-0.5,1.36 -1.39,2.52q-0.89,1.16 -2.12,2.06q-1.22,0.91 -2.66,1.39l0,0q0.61,0.27 1.24,0.77q0.62,0.5 1.17,1.22q0.55,0.72 1,1.64q0.45,0.91 0.72,1.96l0,0l2.05,8.06l3.2,0l0.05,4.64l-7.2,0l-2.76,-11.25q-0.76,-3.03 -2.31,-4.46q-1.55,-1.43 -4.24,-1.43l0,0l-4.76,0l0,12.94l3.71,0l0,4.2l-12.01,0l0,-4.2l3.52,0l0,-28.59l-3.52,0zm14.82,0l-6.52,0l0,11.65l7.11,0q1.39,0 2.55,-0.37q1.16,-0.37 2,-1.1q0.84,-0.73 1.32,-1.82q0.47,-1.08 0.47,-2.52l0,0q0,-2.76 -1.66,-4.3q-1.66,-1.54 -5.27,-1.54l0,0zm42.67,32.79l0,-4.2l3.08,0l-2.93,-8.4l-14.23,0l-2.86,8.4l3.81,0l0,4.2l-12.01,0l0,-4.2l3.22,0l11.52,-32.81l7.21,0l11.5,32.81l3.71,0l0,4.2l-12.02,0zm-7.03,-33.2l-5.66,16.55l11.42,0l-5.76,-16.55z"/>
              </svg>
             </svg>
            </svg>
           </svg>
          </g>
          <g id="svg_81" transform="matrix(1,0,0,1,413.2752147452537,0)">
           <svg id="svg_144" width="113.12477" height="82.11249" viewBox="0 0 113.12476997786474 82.11249070033823">
            <svg id="svg_82" data-fill-palette-color="accent" class="icon-icon-0" width="113.12477" height="82.11249" xml:space="preserve" viewBox="3.1681850968156864 11.04360547051564 57.66473483955798 41.85639452948436" y="0" x="0" version="1.1" xmlns:xlink="http://www.w3.org/1999/xlink" xmlns="http://www.w3.org/2000/svg">
             <g id="svg_145" fill="black">
              <g id="svg_146" fill="black">
               <g id="svg_147" fill="black">
                <path id="svg_148" fill="black" d="m60.8,24.5c0,0.1 -0.2,0.6 -0.1,0.7c-0.3,-0.7 -0.8,-1.4 -1.4,-1.8c0.1,0.3 0,0.7 -0.3,0.9c-0.3,-0.4 -1.6,-1.5 -1.9,-1.7c0.1,0.1 0.2,1 0.1,1.2c-0.3,-0.3 -1.9,-1.4 -2.4,-1.6c0.1,0.2 0.3,0.5 0.4,0.7c-0.1,-0.2 -5.7,-1.1 -6.2,-1.1c4.8,7.3 4.3,20.5 4,23.5l-7,0c4.8,-7.2 2.1,-20.2 1.2,-22.9c-0.9,0.5 -1.5,1.4 -2,2.3c-0.5,1 -0.8,2.1 -1,3.3c-0.4,-0.2 -0.8,-0.6 -0.9,-1c-0.8,1 -1.1,2.3 -0.9,3.6c-0.4,0 -0.8,-0.2 -1,-0.6c-0.1,0.9 -0.1,1.8 0.2,2.7c-1.2,-0.5 -2,-1.7 -2.4,-3c-0.4,-1.8 -0.1,-3.8 1,-5.3c1,-1.5 2.8,-2.6 4.6,-2.8c-2.4,-0.4 -4.9,0.5 -6.5,2.3c-0.1,-0.4 0,-0.9 0.1,-1.3c-1.2,0.3 -2.3,1 -3,2c-0.3,-0.4 -0.3,-1 -0.1,-1.5c-1,0.6 -1.8,1.4 -2.4,2.3c-0.6,-1.9 0.5,-4.1 2.1,-5.3c1.7,-1.2 3.8,-1.4 5.8,-1.3c1.4,0.1 2.7,0.3 4,0.9c-1.6,-1.3 -3.8,-1.9 -5.8,-1.4c0.1,-0.3 0.3,-0.5 0.5,-0.7c-1.2,-0.1 -2.4,0 -3.5,0.3c0.2,-0.3 0.4,-0.6 0.7,-0.8c-1.3,-0.3 -2.6,-0.1 -3.7,0.6c0.1,-0.1 0.2,-0.5 0.3,-0.7c0.9,-1.7 2.7,-2.8 4.6,-3c2.2,-0.2 4.4,0.4 6.1,1.7c0.7,0.5 1.2,1.1 1.7,1.8c-0.1,-0.2 0.4,-1.3 0.5,-1.6c0.9,-2.3 2.6,-4 5,-4.6c2.3,-0.5 5.2,-0.4 6.8,1.5c0.1,0.1 0.3,0.5 0.4,0.5c-0.7,-0.3 -1.5,-0.3 -2.2,-0.2c0.3,0.2 0.4,0.5 0.5,0.8c-0.8,-0.1 -1.6,0 -2.4,0.2c0.4,0 0.8,0.4 0.9,0.8c-0.9,0 -1.9,0.3 -2.7,0.6c0.3,0.1 0.5,0.1 0.8,0.2c-1.1,0.4 -2.1,1.1 -3,1.8c0.3,-0.3 1.3,-0.4 1.7,-0.4c4,-0.6 9.3,2.9 8.8,7.4z"/>
                <path id="svg_149" fill="black" d="m3.2,24.5c0,0.1 0.2,0.6 0.1,0.7c0.3,-0.7 0.8,-1.4 1.4,-1.8c-0.1,0.3 0,0.7 0.3,0.9c0.3,-0.4 0.6,-0.7 1,-1c0.3,-0.2 0.6,-0.5 0.9,-0.7c-0.1,0.1 -0.1,0.2 -0.2,0.3c-0.1,0.3 -0.1,0.6 0.1,0.9c0.3,-0.3 0.6,-0.6 1,-0.8c0.4,-0.3 0.9,-0.6 1.4,-0.8c-0.1,0.2 -0.3,0.5 -0.4,0.7c0.1,-0.2 0.7,-0.3 0.9,-0.4c1.1,-0.4 2.4,-0.6 3.6,-0.7c0.5,0 1.1,0 1.6,0c-4.8,7.3 -4.3,20.5 -4,23.5l7.1,0c-4.8,-7.2 -2.1,-20.2 -1.2,-22.9c0.9,0.5 1.5,1.4 2,2.3c0.5,1 0.8,2.1 1,3.3c0.4,-0.2 0.8,-0.6 0.9,-1c0.8,1 1.1,2.3 0.9,3.6c0.4,0 0.8,-0.2 1,-0.6c0.1,0.9 0.1,1.8 -0.2,2.7c3.2,-1.2 3,-6 1.4,-8.3c-1,-1.5 -2.8,-2.6 -4.6,-2.8c2.4,-0.4 4.9,0.5 6.5,2.3c0.1,-0.4 0,-0.9 -0.1,-1.3c1.2,0.3 2.3,1 3,2c0.3,-0.4 0.3,-1 0.1,-1.5c1,0.6 1.8,1.4 2.4,2.3c0.6,-1.9 -0.5,-4.1 -2.1,-5.3c-1.7,-1.2 -3.8,-1.4 -5.8,-1.3c-1.4,0.1 -2.7,0.3 -4,0.9c1.6,-1.3 3.8,-1.9 5.8,-1.4c-0.1,-0.3 -0.3,-0.5 -0.5,-0.7c1.2,-0.1 2.4,0 3.5,0.3c-0.2,-0.3 -0.4,-0.6 -0.7,-0.8c1.3,-0.3 2.6,-0.1 3.7,0.6c-0.1,-0.1 -0.6,-1.2 -0.8,-1.4c-1,-1.3 -2.5,-2.1 -4.1,-2.3c-2.2,-0.2 -4.4,0.4 -6.1,1.7c-0.7,0.5 -1.2,1.1 -1.7,1.8c0.1,-0.2 -0.4,-1.3 -0.5,-1.6c-0.9,-2.4 -2.6,-4 -5.1,-4.6c-2.2,-0.5 -5.1,-0.4 -6.7,1.5c-0.1,0.1 -0.3,0.5 -0.4,0.5c0.7,-0.3 1.5,-0.3 2.2,-0.2c-0.3,0.2 -0.4,0.5 -0.5,0.8c0.8,-0.1 1.6,0 2.4,0.2c-0.4,0 -0.8,0.4 -0.9,0.8c0.9,0 1.9,0.3 2.7,0.6c-0.3,0.1 -0.5,0.1 -0.8,0.2c1.1,0.4 2.1,1.1 3,1.8c-0.5,-0.2 -1,-0.3 -1.5,-0.4c-4,-0.8 -9.5,2.9 -9,7.4z"/>
               </g>
               <g id="svg_150" fill="black">
                <path id="svg_151" fill="black" d="m38.1,42.9c-0.1,0 -0.6,0.2 -0.7,0.2c-1.2,0.3 -2.5,0.4 -3.8,0.5c-0.3,0 -0.7,0 -1,0c-1.2,0 -2.5,0 -3.7,-0.2c-0.7,-0.1 -1.3,-0.2 -1.9,-0.4c-1.4,-0.3 -2.7,-0.8 -4,-1.5c-1.2,-0.6 -2.5,-1.4 -3.3,-2.5l10.8,0.3c0,0 2.8,3.2 7.5,3.5c0,0 0,0.1 0.1,0.1z"/>
                <path id="svg_152" fill="black" d="m42.6,36.7c-0.3,1.7 -0.9,3.5 -2.1,4.8c-0.1,0.1 -0.2,0.2 -0.4,0.3c-1.1,0.6 -2,0.7 -2,0.7c-2.4,-0.1 -4.2,-1 -5.4,-1.7c-0.8,-0.5 -1.3,-0.9 -1.6,-1.3c0.1,0 0.3,-0.1 0.4,-0.2c1,-0.7 1.8,-1.7 2.4,-2.9c0.1,-0.2 0.8,-2.1 0.8,-2.1c0,0 8.1,-0.4 8.1,-0.4c0.1,0 -0.2,2.6 -0.2,2.8z"/>
               </g>
              </g>
              <path id="svg_153" fill="black" d="m54.1,47.7l-44.2,0c-0.6,0 -1.1,0.5 -1.1,1.1l0,3c0,0.6 0.5,1.1 1.1,1.1l44.1,0c0.6,0 1.1,-0.5 1.1,-1.1l0,-3c0,-0.6 -0.4,-1.1 -1,-1.1z"/>
             </g>
            </svg>
           </svg>
          </g>
         </svg>
         <defs>
          <mask/>
         </defs>
        </svg>
        <rect id="svg_154" visibility="hidden" fill="black" height="61.69668" width="395.52"/>
       </g>
      </mask>
      <rect id="svg_155" data-fill-palette-color="primary" mask="url(#svg_36)" fill="url(#svg_35)" height="61.69668" width="395.52"/>
      <mask id="svg_25">
       <g id="svg_26">
        <svg id="svg_156" width="395.52" height="61.69668" viewBox="0 0 395.52 61.696681733150974">
         <svg id="svg_157" width="395.52" height="61.69668" viewBox="0 0 526.3999847231185 82.11249070033823">
          <g id="svg_99" transform="matrix(1,0,0,1,0,3.4513750006764425)">
           <svg id="svg_158" width="395.52" height="75.20974" viewBox="0 0 395.52000000000004 75.20974069898534">
            <svg id="svg_100" width="395.52" height="75.20974" viewBox="0 0 395.52000000000004 75.20974069898534">
             <svg id="svg_159" width="395.52" height="75.20974" viewBox="0 0 395.52000000000004 75.20974069898534">
              <svg id="svg_160" data-palette-color="url(#3888a710-86c6-435d-9f3b-83e93010c136)" height="75.20974" viewBox="3.49 -37.06 194.89 37.06" width="395.52"/>
             </svg>
            </svg>
           </svg>
          </g>
          <g id="svg_104" transform="matrix(1,0,0,1,413.2752147452537,0)">
           <svg id="svg_161" width="113.12477" height="82.11249" viewBox="0 0 113.12476997786474 82.11249070033823">
            <svg id="svg_105" data-fill-palette-color="accent" class="icon-icon-0" width="113.12477" height="82.11249" xml:space="preserve" viewBox="3.1681850968156864 11.04360547051564 57.66473483955798 41.85639452948436" y="0" x="0" version="1.1" xmlns:xlink="http://www.w3.org/1999/xlink" xmlns="http://www.w3.org/2000/svg">
             <g id="svg_162" fill="white">
              <g id="svg_163" fill="white">
               <g id="svg_164" fill="white">
                <path id="svg_165" fill="white" d="m60.8,24.5c0,0.1 -0.2,0.6 -0.1,0.7c-0.3,-0.7 -0.8,-1.4 -1.4,-1.8c0.1,0.3 0,0.7 -0.3,0.9c-0.3,-0.4 -1.6,-1.5 -1.9,-1.7c0.1,0.1 0.2,1 0.1,1.2c-0.3,-0.3 -1.9,-1.4 -2.4,-1.6c0.1,0.2 0.3,0.5 0.4,0.7c-0.1,-0.2 -5.7,-1.1 -6.2,-1.1c4.8,7.3 4.3,20.5 4,23.5l-7,0c4.8,-7.2 2.1,-20.2 1.2,-22.9c-0.9,0.5 -1.5,1.4 -2,2.3c-0.5,1 -0.8,2.1 -1,3.3c-0.4,-0.2 -0.8,-0.6 -0.9,-1c-0.8,1 -1.1,2.3 -0.9,3.6c-0.4,0 -0.8,-0.2 -1,-0.6c-0.1,0.9 -0.1,1.8 0.2,2.7c-1.2,-0.5 -2,-1.7 -2.4,-3c-0.4,-1.8 -0.1,-3.8 1,-5.3c1,-1.5 2.8,-2.6 4.6,-2.8c-2.4,-0.4 -4.9,0.5 -6.5,2.3c-0.1,-0.4 0,-0.9 0.1,-1.3c-1.2,0.3 -2.3,1 -3,2c-0.3,-0.4 -0.3,-1 -0.1,-1.5c-1,0.6 -1.8,1.4 -2.4,2.3c-0.6,-1.9 0.5,-4.1 2.1,-5.3c1.7,-1.2 3.8,-1.4 5.8,-1.3c1.4,0.1 2.7,0.3 4,0.9c-1.6,-1.3 -3.8,-1.9 -5.8,-1.4c0.1,-0.3 0.3,-0.5 0.5,-0.7c-1.2,-0.1 -2.4,0 -3.5,0.3c0.2,-0.3 0.4,-0.6 0.7,-0.8c-1.3,-0.3 -2.6,-0.1 -3.7,0.6c0.1,-0.1 0.2,-0.5 0.3,-0.7c0.9,-1.7 2.7,-2.8 4.6,-3c2.2,-0.2 4.4,0.4 6.1,1.7c0.7,0.5 1.2,1.1 1.7,1.8c-0.1,-0.2 0.4,-1.3 0.5,-1.6c0.9,-2.3 2.6,-4 5,-4.6c2.3,-0.5 5.2,-0.4 6.8,1.5c0.1,0.1 0.3,0.5 0.4,0.5c-0.7,-0.3 -1.5,-0.3 -2.2,-0.2c0.3,0.2 0.4,0.5 0.5,0.8c-0.8,-0.1 -1.6,0 -2.4,0.2c0.4,0 0.8,0.4 0.9,0.8c-0.9,0 -1.9,0.3 -2.7,0.6c0.3,0.1 0.5,0.1 0.8,0.2c-1.1,0.4 -2.1,1.1 -3,1.8c0.3,-0.3 1.3,-0.4 1.7,-0.4c4,-0.6 9.3,2.9 8.8,7.4z"/>
                <path id="svg_166" fill="white" d="m3.2,24.5c0,0.1 0.2,0.6 0.1,0.7c0.3,-0.7 0.8,-1.4 1.4,-1.8c-0.1,0.3 0,0.7 0.3,0.9c0.3,-0.4 0.6,-0.7 1,-1c0.3,-0.2 0.6,-0.5 0.9,-0.7c-0.1,0.1 -0.1,0.2 -0.2,0.3c-0.1,0.3 -0.1,0.6 0.1,0.9c0.3,-0.3 0.6,-0.6 1,-0.8c0.4,-0.3 0.9,-0.6 1.4,-0.8c-0.1,0.2 -0.3,0.5 -0.4,0.7c0.1,-0.2 0.7,-0.3 0.9,-0.4c1.1,-0.4 2.4,-0.6 3.6,-0.7c0.5,0 1.1,0 1.6,0c-4.8,7.3 -4.3,20.5 -4,23.5l7.1,0c-4.8,-7.2 -2.1,-20.2 -1.2,-22.9c0.9,0.5 1.5,1.4 2,2.3c0.5,1 0.8,2.1 1,3.3c0.4,-0.2 0.8,-0.6 0.9,-1c0.8,1 1.1,2.3 0.9,3.6c0.4,0 0.8,-0.2 1,-0.6c0.1,0.9 0.1,1.8 -0.2,2.7c3.2,-1.2 3,-6 1.4,-8.3c-1,-1.5 -2.8,-2.6 -4.6,-2.8c2.4,-0.4 4.9,0.5 6.5,2.3c0.1,-0.4 0,-0.9 -0.1,-1.3c1.2,0.3 2.3,1 3,2c0.3,-0.4 0.3,-1 0.1,-1.5c1,0.6 1.8,1.4 2.4,2.3c0.6,-1.9 -0.5,-4.1 -2.1,-5.3c-1.7,-1.2 -3.8,-1.4 -5.8,-1.3c-1.4,0.1 -2.7,0.3 -4,0.9c1.6,-1.3 3.8,-1.9 5.8,-1.4c-0.1,-0.3 -0.3,-0.5 -0.5,-0.7c1.2,-0.1 2.4,0 3.5,0.3c-0.2,-0.3 -0.4,-0.6 -0.7,-0.8c1.3,-0.3 2.6,-0.1 3.7,0.6c-0.1,-0.1 -0.6,-1.2 -0.8,-1.4c-1,-1.3 -2.5,-2.1 -4.1,-2.3c-2.2,-0.2 -4.4,0.4 -6.1,1.7c-0.7,0.5 -1.2,1.1 -1.7,1.8c0.1,-0.2 -0.4,-1.3 -0.5,-1.6c-0.9,-2.4 -2.6,-4 -5.1,-4.6c-2.2,-0.5 -5.1,-0.4 -6.7,1.5c-0.1,0.1 -0.3,0.5 -0.4,0.5c0.7,-0.3 1.5,-0.3 2.2,-0.2c-0.3,0.2 -0.4,0.5 -0.5,0.8c0.8,-0.1 1.6,0 2.4,0.2c-0.4,0 -0.8,0.4 -0.9,0.8c0.9,0 1.9,0.3 2.7,0.6c-0.3,0.1 -0.5,0.1 -0.8,0.2c1.1,0.4 2.1,1.1 3,1.8c-0.5,-0.2 -1,-0.3 -1.5,-0.4c-4,-0.8 -9.5,2.9 -9,7.4z"/>
               </g>
               <g id="svg_167" fill="white">
                <path id="svg_168" fill="white" d="m38.1,42.9c-0.1,0 -0.6,0.2 -0.7,0.2c-1.2,0.3 -2.5,0.4 -3.8,0.5c-0.3,0 -0.7,0 -1,0c-1.2,0 -2.5,0 -3.7,-0.2c-0.7,-0.1 -1.3,-0.2 -1.9,-0.4c-1.4,-0.3 -2.7,-0.8 -4,-1.5c-1.2,-0.6 -2.5,-1.4 -3.3,-2.5l10.8,0.3c0,0 2.8,3.2 7.5,3.5c0,0 0,0.1 0.1,0.1z"/>
                <path id="svg_169" fill="white" d="m42.6,36.7c-0.3,1.7 -0.9,3.5 -2.1,4.8c-0.1,0.1 -0.2,0.2 -0.4,0.3c-1.1,0.6 -2,0.7 -2,0.7c-2.4,-0.1 -4.2,-1 -5.4,-1.7c-0.8,-0.5 -1.3,-0.9 -1.6,-1.3c0.1,0 0.3,-0.1 0.4,-0.2c1,-0.7 1.8,-1.7 2.4,-2.9c0.1,-0.2 0.8,-2.1 0.8,-2.1c0,0 8.1,-0.4 8.1,-0.4c0.1,0 -0.2,2.6 -0.2,2.8z"/>
               </g>
              </g>
              <path id="svg_170" fill="white" d="m54.1,47.7l-44.2,0c-0.6,0 -1.1,0.5 -1.1,1.1l0,3c0,0.6 0.5,1.1 1.1,1.1l44.1,0c0.6,0 1.1,-0.5 1.1,-1.1l0,-3c0,-0.6 -0.4,-1.1 -1,-1.1z"/>
             </g>
            </svg>
           </svg>
          </g>
         </svg>
         <defs>
          <mask/>
         </defs>
         <mask>
          <g id="svg_84">
           <svg id="svg_171" width="395.52" height="61.69668" viewBox="0 0 395.52 61.696681733150974">
            <svg id="svg_172" width="395.52" height="61.69668" viewBox="0 0 526.3999847231185 82.11249070033823">
             <g id="svg_120" transform="matrix(1,0,0,1,0,3.4513750006764425)">
              <svg id="svg_173" width="395.52" height="75.20974" viewBox="0 0 395.52000000000004 75.20974069898534">
               <svg id="svg_121" width="395.52" height="75.20974" viewBox="0 0 395.52000000000004 75.20974069898534">
                <svg id="svg_174" width="395.52" height="75.20974" viewBox="0 0 395.52000000000004 75.20974069898534">
                 <svg id="svg_175" data-palette-color="url(#3888a710-86c6-435d-9f3b-83e93010c136)" height="75.20974" viewBox="3.49 -37.06 194.89 37.06" width="395.52">
                  <path id="svg_125" class="wordmark-text-0" fill="black" d="m26.39,-32.79l0,-4.22l12.01,0l0,4.22l-3.15,0l0,32.79l-6.25,0l-17.21,-30.69l0,26.49l3.81,0l0,4.2l-12.01,0l0,-4.2l3.42,0l0,-28.59l-3.52,0l0,-4.27l9.96,0l16.9,30.39l0.19,-1.17l0,-24.95l-4.15,0zm16.75,0l0,-4.22l11.81,0l0,4.22l-3.51,0l0,28.59l3.51,0l0,4.2l-11.81,0l0,-4.2l3.51,0l0,-28.59l-3.51,0zm16.55,0l0,-4.22l12.01,0l0,4.22l-3.52,0l6.96,11.89l7.45,-11.89l-3.86,0l0,-4.22l12.01,0l0,4.22l-3.15,0l-10.4,15.77l0,12.82l3.81,0l0,4.2l-12.01,0l0,-4.2l3.39,0l0,-12.94l-9.81,-15.65l-2.88,0zm53.44,32.79l0,-4.2l3.07,0l-2.93,-8.4l-14.23,0l-2.86,8.4l3.81,0l0,4.2l-12.01,0l0,-4.2l3.22,0l11.53,-32.81l7.2,0l11.5,32.81l3.71,0l0,4.2l-12.01,0zm-7.03,-33.2l-5.67,16.55l11.43,0l-5.76,-16.55zm22.77,0.41l0,-4.22l15.41,0q2.46,0 4.55,0.65q2.09,0.64 3.61,1.9q1.53,1.26 2.38,3.14q0.86,1.88 0.86,4.32l0,0q0,1.39 -0.5,2.74q-0.5,1.36 -1.39,2.52q-0.89,1.16 -2.12,2.06q-1.22,0.91 -2.66,1.39l0,0q0.61,0.27 1.24,0.77q0.62,0.5 1.17,1.22q0.55,0.72 1,1.64q0.45,0.91 0.72,1.96l0,0l2.05,8.06l3.2,0l0.05,4.64l-7.2,0l-2.76,-11.25q-0.76,-3.03 -2.31,-4.46q-1.55,-1.43 -4.24,-1.43l0,0l-4.76,0l0,12.94l3.71,0l0,4.2l-12.01,0l0,-4.2l3.52,0l0,-28.59l-3.52,0zm14.82,0l-6.52,0l0,11.65l7.11,0q1.39,0 2.55,-0.37q1.16,-0.37 2,-1.1q0.84,-0.73 1.32,-1.82q0.47,-1.08 0.47,-2.52l0,0q0,-2.76 -1.66,-4.3q-1.66,-1.54 -5.27,-1.54l0,0zm42.67,32.79l0,-4.2l3.08,0l-2.93,-8.4l-14.23,0l-2.86,8.4l3.81,0l0,4.2l-12.01,0l0,-4.2l3.22,0l11.52,-32.81l7.21,0l11.5,32.81l3.71,0l0,4.2l-12.02,0zm-7.03,-33.2l-5.66,16.55l11.42,0l-5.76,-16.55z"/>
                 </svg>
                </svg>
               </svg>
              </svg>
             </g>
             <g id="svg_128" transform="matrix(1,0,0,1,413.2752147452537,0)">
              <svg id="svg_176" width="113.12477" height="82.11249" viewBox="0 0 113.12476997786474 82.11249070033823">
               <svg id="svg_129" data-fill-palette-color="accent" class="icon-icon-0" width="113.12477" height="82.11249" xml:space="preserve" viewBox="3.1681850968156864 11.04360547051564 57.66473483955798 41.85639452948436" y="0" x="0" version="1.1" xmlns:xlink="http://www.w3.org/1999/xlink" xmlns="http://www.w3.org/2000/svg">
                <g id="svg_177" fill="black">
                 <g id="svg_178" fill="black">
                  <g id="svg_179" fill="black">
                   <path id="svg_180" fill="black" d="m60.8,24.5c0,0.1 -0.2,0.6 -0.1,0.7c-0.3,-0.7 -0.8,-1.4 -1.4,-1.8c0.1,0.3 0,0.7 -0.3,0.9c-0.3,-0.4 -1.6,-1.5 -1.9,-1.7c0.1,0.1 0.2,1 0.1,1.2c-0.3,-0.3 -1.9,-1.4 -2.4,-1.6c0.1,0.2 0.3,0.5 0.4,0.7c-0.1,-0.2 -5.7,-1.1 -6.2,-1.1c4.8,7.3 4.3,20.5 4,23.5l-7,0c4.8,-7.2 2.1,-20.2 1.2,-22.9c-0.9,0.5 -1.5,1.4 -2,2.3c-0.5,1 -0.8,2.1 -1,3.3c-0.4,-0.2 -0.8,-0.6 -0.9,-1c-0.8,1 -1.1,2.3 -0.9,3.6c-0.4,0 -0.8,-0.2 -1,-0.6c-0.1,0.9 -0.1,1.8 0.2,2.7c-1.2,-0.5 -2,-1.7 -2.4,-3c-0.4,-1.8 -0.1,-3.8 1,-5.3c1,-1.5 2.8,-2.6 4.6,-2.8c-2.4,-0.4 -4.9,0.5 -6.5,2.3c-0.1,-0.4 0,-0.9 0.1,-1.3c-1.2,0.3 -2.3,1 -3,2c-0.3,-0.4 -0.3,-1 -0.1,-1.5c-1,0.6 -1.8,1.4 -2.4,2.3c-0.6,-1.9 0.5,-4.1 2.1,-5.3c1.7,-1.2 3.8,-1.4 5.8,-1.3c1.4,0.1 2.7,0.3 4,0.9c-1.6,-1.3 -3.8,-1.9 -5.8,-1.4c0.1,-0.3 0.3,-0.5 0.5,-0.7c-1.2,-0.1 -2.4,0 -3.5,0.3c0.2,-0.3 0.4,-0.6 0.7,-0.8c-1.3,-0.3 -2.6,-0.1 -3.7,0.6c0.1,-0.1 0.2,-0.5 0.3,-0.7c0.9,-1.7 2.7,-2.8 4.6,-3c2.2,-0.2 4.4,0.4 6.1,1.7c0.7,0.5 1.2,1.1 1.7,1.8c-0.1,-0.2 0.4,-1.3 0.5,-1.6c0.9,-2.3 2.6,-4 5,-4.6c2.3,-0.5 5.2,-0.4 6.8,1.5c0.1,0.1 0.3,0.5 0.4,0.5c-0.7,-0.3 -1.5,-0.3 -2.2,-0.2c0.3,0.2 0.4,0.5 0.5,0.8c-0.8,-0.1 -1.6,0 -2.4,0.2c0.4,0 0.8,0.4 0.9,0.8c-0.9,0 -1.9,0.3 -2.7,0.6c0.3,0.1 0.5,0.1 0.8,0.2c-1.1,0.4 -2.1,1.1 -3,1.8c0.3,-0.3 1.3,-0.4 1.7,-0.4c4,-0.6 9.3,2.9 8.8,7.4z"/>
                   <path id="svg_181" fill="black" d="m3.2,24.5c0,0.1 0.2,0.6 0.1,0.7c0.3,-0.7 0.8,-1.4 1.4,-1.8c-0.1,0.3 0,0.7 0.3,0.9c0.3,-0.4 0.6,-0.7 1,-1c0.3,-0.2 0.6,-0.5 0.9,-0.7c-0.1,0.1 -0.1,0.2 -0.2,0.3c-0.1,0.3 -0.1,0.6 0.1,0.9c0.3,-0.3 0.6,-0.6 1,-0.8c0.4,-0.3 0.9,-0.6 1.4,-0.8c-0.1,0.2 -0.3,0.5 -0.4,0.7c0.1,-0.2 0.7,-0.3 0.9,-0.4c1.1,-0.4 2.4,-0.6 3.6,-0.7c0.5,0 1.1,0 1.6,0c-4.8,7.3 -4.3,20.5 -4,23.5l7.1,0c-4.8,-7.2 -2.1,-20.2 -1.2,-22.9c0.9,0.5 1.5,1.4 2,2.3c0.5,1 0.8,2.1 1,3.3c0.4,-0.2 0.8,-0.6 0.9,-1c0.8,1 1.1,2.3 0.9,3.6c0.4,0 0.8,-0.2 1,-0.6c0.1,0.9 0.1,1.8 -0.2,2.7c3.2,-1.2 3,-6 1.4,-8.3c-1,-1.5 -2.8,-2.6 -4.6,-2.8c2.4,-0.4 4.9,0.5 6.5,2.3c0.1,-0.4 0,-0.9 -0.1,-1.3c1.2,0.3 2.3,1 3,2c0.3,-0.4 0.3,-1 0.1,-1.5c1,0.6 1.8,1.4 2.4,2.3c0.6,-1.9 -0.5,-4.1 -2.1,-5.3c-1.7,-1.2 -3.8,-1.4 -5.8,-1.3c-1.4,0.1 -2.7,0.3 -4,0.9c1.6,-1.3 3.8,-1.9 5.8,-1.4c-0.1,-0.3 -0.3,-0.5 -0.5,-0.7c1.2,-0.1 2.4,0 3.5,0.3c-0.2,-0.3 -0.4,-0.6 -0.7,-0.8c1.3,-0.3 2.6,-0.1 3.7,0.6c-0.1,-0.1 -0.6,-1.2 -0.8,-1.4c-1,-1.3 -2.5,-2.1 -4.1,-2.3c-2.2,-0.2 -4.4,0.4 -6.1,1.7c-0.7,0.5 -1.2,1.1 -1.7,1.8c0.1,-0.2 -0.4,-1.3 -0.5,-1.6c-0.9,-2.4 -2.6,-4 -5.1,-4.6c-2.2,-0.5 -5.1,-0.4 -6.7,1.5c-0.1,0.1 -0.3,0.5 -0.4,0.5c0.7,-0.3 1.5,-0.3 2.2,-0.2c-0.3,0.2 -0.4,0.5 -0.5,0.8c0.8,-0.1 1.6,0 2.4,0.2c-0.4,0 -0.8,0.4 -0.9,0.8c0.9,0 1.9,0.3 2.7,0.6c-0.3,0.1 -0.5,0.1 -0.8,0.2c1.1,0.4 2.1,1.1 3,1.8c-0.5,-0.2 -1,-0.3 -1.5,-0.4c-4,-0.8 -9.5,2.9 -9,7.4z"/>
                  </g>
                  <g id="svg_182" fill="black">
                   <path id="svg_183" fill="black" d="m38.1,42.9c-0.1,0 -0.6,0.2 -0.7,0.2c-1.2,0.3 -2.5,0.4 -3.8,0.5c-0.3,0 -0.7,0 -1,0c-1.2,0 -2.5,0 -3.7,-0.2c-0.7,-0.1 -1.3,-0.2 -1.9,-0.4c-1.4,-0.3 -2.7,-0.8 -4,-1.5c-1.2,-0.6 -2.5,-1.4 -3.3,-2.5l10.8,0.3c0,0 2.8,3.2 7.5,3.5c0,0 0,0.1 0.1,0.1z"/>
                   <path id="svg_184" fill="black" d="m42.6,36.7c-0.3,1.7 -0.9,3.5 -2.1,4.8c-0.1,0.1 -0.2,0.2 -0.4,0.3c-1.1,0.6 -2,0.7 -2,0.7c-2.4,-0.1 -4.2,-1 -5.4,-1.7c-0.8,-0.5 -1.3,-0.9 -1.6,-1.3c0.1,0 0.3,-0.1 0.4,-0.2c1,-0.7 1.8,-1.7 2.4,-2.9c0.1,-0.2 0.8,-2.1 0.8,-2.1c0,0 8.1,-0.4 8.1,-0.4c0.1,0 -0.2,2.6 -0.2,2.8z"/>
                  </g>
                 </g>
                 <path id="svg_185" fill="black" d="m54.1,47.7l-44.2,0c-0.6,0 -1.1,0.5 -1.1,1.1l0,3c0,0.6 0.5,1.1 1.1,1.1l44.1,0c0.6,0 1.1,-0.5 1.1,-1.1l0,-3c0,-0.6 -0.4,-1.1 -1,-1.1z"/>
                </g>
               </svg>
              </svg>
             </g>
            </svg>
            <defs>
             <mask/>
            </defs>
           </svg>
           <rect id="svg_186" visibility="hidden" fill="black" height="61.69668" width="395.52"/>
          </g>
         </mask>
        </svg>
        <rect id="svg_187" visibility="hidden" fill="black" height="61.69668" width="395.52"/>
       </g>
      </mask>
      <rect id="svg_188" data-fill-palette-color="accent" mask="url(#svg_25)" fill="url(#svg_24)" height="61.69668" width="395.52"/>
     </svg>
     <rect id="svg_189" visibility="hidden" fill="none" height="61.69668" width="395.52"/>
    </g>
   </svg>
  </g>
 </g>
</svg>